<?xml version="1.0" standalone="no"?>
<!DOCTYPE svg PUBLIC "-//W3C//DTD SVG 20010904//EN"
 "http://www.w3.org/TR/2001/REC-SVG-20010904/DTD/svg10.dtd">
<svg version="1.0" xmlns="http://www.w3.org/2000/svg"
 width="2048.000000pt" height="2048.000000pt" viewBox="0 0 2048.000000 2048.000000"
 preserveAspectRatio="xMidYMid meet">
<metadata>
Created by potrace 1.16, written by Peter Selinger 2001-2019
</metadata>
<g transform="translate(0.000000,2048.000000) scale(0.100000,-0.100000)"
fill="#000000" stroke="none">
<path d="M3142 17668 c-18 -18 -18 -12478 0 -12496 9 -9 305 -12 1270 -12
1233 0 1257 0 1268 19 7 14 10 1300 10 4080 l0 4061 24 6 c50 12 78 1 102 -41
13 -22 23 -47 24 -55 0 -8 9 -32 20 -53 11 -20 20 -43 20 -50 0 -7 9 -29 20
-50 11 -20 20 -43 20 -50 0 -7 9 -29 20 -50 11 -20 20 -43 20 -49 0 -7 12 -35
25 -63 14 -27 25 -56 25 -63 0 -6 9 -29 20 -49 11 -21 20 -43 20 -50 0 -7 9
-30 20 -50 11 -21 20 -44 20 -51 0 -8 7 -26 15 -40 8 -15 21 -45 29 -67 8 -22
21 -60 30 -85 9 -25 23 -57 31 -72 8 -14 15 -32 15 -40 0 -7 9 -30 20 -51 11
-20 20 -43 20 -50 0 -7 9 -29 20 -50 11 -20 20 -43 20 -50 0 -7 9 -29 20 -50
11 -20 20 -43 20 -49 0 -7 12 -35 25 -63 14 -27 25 -58 25 -67 0 -9 4 -19 9
-23 5 -3 17 -28 26 -56 10 -28 24 -63 31 -78 8 -14 14 -32 14 -39 0 -6 9 -29
20 -49 11 -21 20 -43 20 -50 0 -7 9 -30 20 -50 11 -21 20 -43 20 -50 0 -7 9
-30 20 -50 11 -21 20 -44 20 -51 0 -8 7 -26 15 -40 8 -15 22 -47 31 -72 9 -25
22 -63 30 -85 8 -22 21 -52 29 -67 8 -14 15 -32 15 -40 0 -7 12 -35 25 -63 14
-27 25 -55 25 -60 0 -6 9 -28 20 -50 11 -22 20 -44 20 -50 0 -6 9 -28 20 -50
11 -22 20 -44 20 -50 0 -6 9 -28 20 -50 11 -22 20 -47 20 -57 0 -9 4 -19 9
-23 5 -3 17 -28 26 -56 10 -28 24 -63 31 -78 8 -14 14 -33 14 -41 0 -8 9 -28
20 -45 11 -16 20 -37 20 -45 0 -8 9 -33 20 -55 11 -22 19 -47 20 -55 0 -9 6
-24 14 -35 7 -11 17 -31 21 -45 4 -14 13 -38 21 -55 7 -16 21 -50 30 -75 25
-70 50 -132 68 -172 9 -21 16 -42 16 -47 0 -5 7 -22 15 -38 19 -38 47 -104 80
-193 16 -41 37 -94 47 -117 10 -23 18 -48 18 -55 0 -7 9 -26 20 -43 11 -16 20
-37 20 -45 0 -8 6 -27 14 -42 8 -14 19 -43 26 -65 7 -21 19 -47 26 -58 8 -11
14 -26 14 -35 1 -8 9 -33 20 -55 11 -22 19 -44 20 -49 0 -5 9 -27 19 -50 10
-23 33 -79 51 -125 17 -46 35 -91 40 -100 4 -9 40 -99 79 -201 40 -102 78
-197 86 -212 8 -14 15 -32 15 -40 0 -7 9 -30 20 -51 11 -20 20 -43 20 -50 0
-7 9 -29 20 -50 11 -20 20 -43 20 -50 0 -7 9 -29 20 -50 11 -20 20 -43 20 -50
0 -7 9 -29 20 -50 11 -20 20 -43 20 -50 0 -7 9 -29 20 -50 11 -20 20 -43 20
-49 0 -7 7 -26 16 -43 9 -16 22 -51 30 -77 8 -26 19 -50 24 -53 6 -3 10 -14
10 -23 0 -10 9 -35 20 -57 11 -22 20 -43 20 -48 0 -5 11 -35 24 -66 14 -31 36
-87 51 -126 14 -38 32 -82 40 -97 8 -14 15 -32 15 -40 0 -7 9 -30 20 -51 11
-20 20 -43 20 -50 0 -7 9 -29 20 -50 11 -20 20 -43 20 -50 0 -7 9 -29 20 -50
11 -20 20 -43 20 -50 0 -7 9 -29 20 -50 11 -20 20 -43 20 -50 0 -7 9 -29 20
-50 11 -20 20 -43 20 -49 0 -7 7 -26 16 -43 9 -16 22 -51 30 -77 8 -26 19 -50
24 -53 6 -3 10 -14 10 -23 0 -9 11 -39 25 -67 13 -27 25 -56 25 -63 0 -8 7
-26 15 -40 8 -15 21 -45 29 -67 8 -22 21 -60 30 -85 9 -25 23 -57 31 -72 8
-14 15 -32 15 -40 0 -7 9 -30 20 -51 11 -20 20 -43 20 -50 0 -7 9 -29 20 -50
11 -20 20 -43 20 -50 0 -7 9 -29 20 -50 11 -20 20 -43 20 -50 0 -7 9 -29 20
-50 11 -20 20 -43 20 -50 0 -7 9 -29 20 -50 11 -20 20 -43 20 -50 0 -7 9 -29
20 -50 11 -20 20 -43 20 -49 0 -7 12 -35 25 -63 14 -27 25 -56 25 -64 0 -7 9
-29 21 -47 l21 -34 867 0 c898 0 891 0 891 40 0 8 9 32 20 53 11 20 20 43 20
50 0 7 9 29 20 50 11 20 20 43 20 50 0 7 9 29 20 50 11 20 20 43 20 50 0 7 9
29 20 50 11 20 20 43 20 50 0 7 9 29 20 50 11 20 20 43 20 49 0 7 12 36 25 63
14 28 25 55 25 60 0 6 9 28 20 50 11 22 20 44 20 50 0 6 9 28 20 50 11 22 20
47 20 57 0 9 4 20 10 23 5 3 16 27 24 53 8 26 21 61 30 77 9 17 16 37 16 45 0
9 6 24 14 35 7 11 19 38 26 60 7 22 19 49 26 60 8 11 14 26 14 35 0 8 9 32 20
53 11 20 20 43 20 50 0 7 9 29 20 50 11 20 20 43 20 50 0 7 9 29 20 50 11 20
20 43 20 50 0 7 9 29 20 50 11 20 20 43 20 50 0 7 9 29 20 50 11 20 20 43 20
49 0 7 11 36 25 63 13 28 25 56 25 63 0 6 9 29 20 49 11 21 20 43 20 50 0 7 9
30 20 50 11 21 20 43 20 50 0 7 9 30 20 50 11 21 20 43 20 50 0 7 9 30 20 50
11 21 20 43 20 50 0 7 9 30 20 50 11 21 20 45 20 53 0 8 9 29 20 45 11 17 20
37 20 45 0 8 9 33 20 55 11 22 19 46 20 54 0 7 9 30 19 50 10 20 33 74 51 121
17 47 36 89 41 94 5 6 9 17 9 26 0 9 9 33 20 55 11 22 20 44 20 49 0 5 8 28
18 50 32 71 63 150 74 186 6 19 17 44 24 55 8 11 14 26 14 35 0 8 9 32 20 53
11 20 20 43 20 50 0 7 9 29 20 50 11 20 20 43 20 50 0 7 9 29 20 50 11 20 20
43 20 49 0 7 12 36 25 63 14 28 25 57 25 65 0 8 7 24 15 34 8 11 15 27 15 35
0 9 12 39 25 66 14 28 25 58 25 67 0 9 4 19 9 23 5 3 17 29 27 58 9 28 20 57
24 62 4 6 13 27 20 48 7 22 18 51 26 65 8 15 14 34 14 42 0 8 9 29 20 45 11
17 20 37 20 45 0 8 6 27 14 42 8 14 19 43 26 65 7 21 19 47 26 58 8 11 14 26
14 35 0 8 9 32 20 53 11 20 20 43 20 50 0 7 9 29 20 50 11 20 20 43 20 49 0 7
7 27 16 43 9 17 22 51 30 77 8 26 19 50 24 53 6 3 10 14 10 23 0 9 12 40 25
67 14 28 25 56 25 63 0 6 9 29 20 49 11 21 20 43 20 50 0 7 9 30 20 50 11 21
20 43 20 50 0 7 9 30 20 50 11 21 20 43 20 50 0 7 9 30 20 50 11 21 20 45 20
53 0 9 6 24 14 35 7 11 19 37 26 58 7 22 18 51 26 65 8 15 14 34 14 42 0 8 9
30 20 48 11 18 20 38 20 45 0 6 6 24 14 38 7 15 21 50 31 78 9 28 21 53 26 56
5 4 9 14 9 23 0 10 9 35 20 57 11 22 20 44 20 50 0 6 9 28 20 50 11 22 20 44
20 50 0 6 9 28 20 50 11 22 20 43 20 48 0 9 36 98 66 162 13 28 22 54 59 158
8 23 22 54 30 69 8 14 15 32 15 40 0 7 9 30 20 51 11 20 20 43 20 50 0 7 9 29
20 50 11 20 20 43 20 49 0 7 12 36 25 63 14 28 25 57 25 65 0 9 4 20 9 25 5 6
44 98 86 205 42 107 82 209 90 225 7 17 16 41 20 55 4 14 14 34 21 45 8 11 14
26 14 35 0 8 9 32 20 53 11 20 20 45 20 54 0 10 9 32 20 48 11 17 20 37 20 45
0 8 9 32 20 53 11 20 20 43 20 50 0 7 8 28 19 47 10 19 22 50 25 67 8 36 51
73 84 73 12 0 28 -10 36 -22 14 -20 16 -422 16 -4065 0 -3986 0 -4042 19
-4053 13 -7 429 -10 1275 -10 1231 0 1255 0 1266 19 16 30 14 12473 -2 12489
-9 9 -380 12 -1613 11 -880 -1 -1610 -4 -1622 -7 -21 -7 -73 -88 -73 -115 0
-7 -9 -29 -20 -50 -11 -20 -20 -43 -20 -50 0 -7 -9 -29 -20 -50 -11 -20 -20
-43 -20 -49 0 -7 -7 -26 -16 -43 -9 -16 -31 -70 -51 -120 -19 -49 -39 -94 -44
-100 -5 -5 -9 -16 -9 -25 0 -8 -11 -37 -25 -65 -13 -27 -25 -57 -25 -65 0 -9
-6 -25 -14 -36 -8 -11 -19 -39 -25 -62 -7 -23 -16 -42 -21 -42 -4 0 -12 -15
-16 -32 -3 -18 -15 -49 -25 -68 -11 -19 -19 -40 -19 -47 0 -7 -9 -30 -20 -50
-11 -21 -20 -45 -20 -53 0 -8 -9 -28 -20 -45 -11 -16 -20 -37 -20 -45 0 -8 -9
-32 -20 -53 -11 -20 -20 -43 -20 -49 0 -7 -12 -35 -25 -63 -14 -27 -25 -55
-25 -62 0 -6 -7 -24 -15 -40 -27 -52 -65 -142 -65 -152 0 -6 -9 -28 -20 -48
-11 -21 -20 -43 -20 -50 0 -7 -9 -30 -20 -50 -11 -21 -20 -44 -20 -51 0 -7 -9
-30 -19 -50 -33 -63 -61 -129 -61 -141 0 -6 -9 -28 -20 -48 -11 -21 -20 -43
-20 -50 0 -7 -9 -30 -20 -50 -11 -21 -20 -45 -20 -53 0 -8 -9 -28 -20 -45 -11
-16 -20 -37 -20 -45 0 -8 -9 -32 -20 -53 -11 -20 -20 -43 -20 -49 0 -7 -7 -26
-16 -43 -9 -16 -31 -68 -49 -115 -18 -47 -40 -98 -49 -115 -9 -16 -16 -36 -16
-43 0 -6 -9 -29 -20 -49 -11 -21 -20 -44 -20 -51 0 -8 -6 -26 -14 -40 -8 -15
-27 -56 -41 -92 -15 -36 -36 -83 -46 -106 -10 -23 -19 -48 -19 -55 0 -8 -6
-23 -14 -34 -7 -11 -19 -38 -26 -60 -7 -22 -19 -49 -26 -60 -8 -11 -14 -26
-14 -35 0 -8 -7 -28 -16 -45 -9 -16 -21 -46 -29 -65 -28 -76 -94 -237 -109
-265 -9 -16 -16 -36 -16 -43 0 -6 -9 -29 -20 -49 -11 -21 -20 -45 -20 -55 0
-9 -4 -19 -9 -23 -5 -3 -15 -22 -21 -43 -14 -41 -25 -68 -64 -154 -14 -31 -26
-62 -26 -67 0 -6 -9 -28 -20 -48 -11 -21 -20 -45 -20 -53 0 -9 -6 -24 -14 -35
-7 -11 -19 -38 -26 -60 -7 -22 -19 -49 -26 -60 -8 -11 -14 -26 -14 -35 0 -8
-12 -37 -25 -65 -14 -27 -25 -55 -25 -62 0 -6 -7 -24 -15 -40 -21 -42 -52
-115 -60 -143 -5 -14 -16 -41 -26 -60 -11 -19 -19 -42 -19 -50 0 -9 -6 -25
-14 -36 -8 -11 -19 -39 -25 -62 -7 -23 -16 -42 -21 -42 -6 0 -10 -8 -10 -17 0
-10 -11 -40 -25 -68 -13 -27 -25 -56 -25 -63 0 -6 -9 -29 -20 -49 -11 -21 -20
-45 -20 -53 0 -9 -6 -24 -14 -35 -7 -11 -19 -38 -26 -60 -7 -22 -19 -49 -26
-60 -8 -11 -14 -26 -14 -35 0 -8 -9 -32 -20 -53 -11 -20 -20 -43 -20 -49 0 -7
-7 -26 -16 -43 -9 -16 -31 -70 -51 -120 -19 -49 -39 -94 -44 -100 -5 -5 -9
-16 -9 -25 0 -8 -11 -37 -25 -65 -13 -27 -25 -57 -25 -65 0 -9 -6 -25 -14 -36
-8 -11 -19 -39 -25 -62 -7 -23 -16 -42 -21 -42 -4 0 -12 -15 -16 -32 -3 -18
-15 -49 -25 -68 -11 -19 -19 -40 -19 -47 0 -7 -9 -30 -20 -50 -11 -21 -20 -45
-20 -53 0 -8 -9 -28 -20 -45 -11 -16 -20 -37 -20 -45 0 -8 -9 -32 -20 -53 -11
-20 -20 -43 -20 -49 0 -7 -7 -26 -16 -43 -15 -28 -81 -189 -109 -265 -8 -19
-20 -48 -29 -65 -9 -16 -16 -37 -16 -45 0 -9 -6 -24 -14 -35 -7 -11 -17 -31
-20 -45 -4 -14 -16 -43 -26 -65 -10 -22 -28 -61 -39 -86 -12 -25 -21 -51 -21
-58 0 -6 -9 -28 -20 -48 -11 -21 -20 -45 -20 -53 0 -9 -6 -24 -14 -35 -7 -11
-19 -38 -26 -60 -7 -22 -19 -49 -26 -60 -8 -11 -14 -26 -14 -35 0 -8 -9 -32
-20 -53 -11 -20 -20 -43 -20 -49 0 -7 -7 -26 -16 -43 -9 -16 -31 -68 -49 -115
-18 -47 -40 -98 -49 -115 -9 -16 -16 -37 -16 -45 0 -9 -6 -24 -14 -35 -7 -11
-17 -31 -21 -45 -4 -14 -13 -38 -20 -55 -7 -16 -25 -59 -40 -95 -15 -36 -36
-83 -46 -106 -10 -23 -19 -47 -19 -54 0 -7 -9 -28 -21 -47 l-21 -34 -71 3
c-50 2 -72 7 -78 18 -32 61 -99 226 -99 245 0 7 -6 18 -14 24 -8 7 -18 27 -22
44 -4 18 -15 48 -25 67 -11 19 -19 40 -19 47 0 7 -9 30 -20 50 -11 21 -20 45
-20 53 0 8 -9 29 -20 45 -11 17 -20 37 -20 45 0 8 -7 29 -16 45 -9 17 -21 46
-29 65 -37 100 -98 246 -106 254 -5 6 -9 17 -9 25 0 9 -11 39 -25 66 -13 28
-25 55 -25 62 0 6 -7 24 -15 40 -21 42 -52 115 -60 143 -5 14 -16 41 -26 60
-11 19 -19 40 -19 47 0 7 -9 30 -20 50 -11 21 -20 43 -20 50 0 7 -9 30 -20 50
-11 21 -20 45 -20 53 0 8 -9 29 -20 45 -11 17 -20 37 -20 45 0 8 -7 29 -16 45
-9 17 -31 71 -51 120 -19 50 -39 94 -44 100 -5 5 -9 16 -9 25 0 9 -9 33 -20
55 -11 22 -20 44 -20 50 0 5 -11 33 -25 60 -13 28 -25 55 -25 62 0 6 -7 24
-15 40 -8 15 -26 57 -41 93 -14 36 -35 83 -45 106 -10 23 -19 48 -19 55 0 8
-6 23 -14 34 -7 11 -19 38 -26 60 -7 22 -19 49 -26 60 -8 11 -14 26 -14 35 0
8 -7 29 -16 45 -9 17 -21 46 -29 65 -37 100 -98 246 -106 255 -5 5 -9 16 -9
25 0 8 -8 31 -19 50 -10 19 -21 46 -26 60 -8 28 -39 101 -60 143 -8 16 -15 34
-15 40 0 7 -11 35 -25 62 -13 28 -25 56 -25 63 0 6 -9 29 -20 49 -11 21 -20
45 -20 53 0 9 -6 24 -14 35 -7 11 -19 38 -26 60 -7 22 -19 49 -26 60 -8 11
-14 26 -14 34 0 7 -9 32 -19 55 -10 23 -31 70 -45 106 -15 36 -33 78 -41 93
-8 16 -15 34 -15 40 0 7 -11 35 -25 62 -13 28 -25 58 -25 67 0 9 -4 19 -9 23
-5 3 -15 22 -21 43 -6 20 -18 51 -25 67 -48 104 -65 145 -65 154 0 6 -9 28
-20 48 -11 21 -20 45 -20 53 0 8 -9 29 -20 45 -11 17 -20 37 -20 45 0 8 -9 32
-20 53 -11 20 -20 43 -20 50 0 7 -9 29 -20 50 -11 20 -20 43 -20 49 0 7 -7 27
-16 43 -9 17 -31 71 -51 120 -19 50 -39 94 -44 99 -5 6 -9 17 -9 25 0 9 -11
39 -25 66 -13 28 -25 56 -25 63 0 6 -9 29 -20 49 -11 21 -20 45 -20 54 0 9 -7
22 -15 29 -8 7 -15 20 -15 29 0 9 -11 39 -25 66 -13 28 -25 56 -25 63 0 6 -9
29 -20 49 -11 21 -20 45 -20 53 0 8 -9 29 -20 45 -11 17 -20 37 -20 45 0 8 -9
32 -20 53 -11 20 -20 43 -20 49 0 7 -7 27 -16 43 -9 17 -21 46 -29 65 -28 76
-94 237 -109 265 -9 17 -16 38 -16 47 0 9 -4 19 -9 23 -5 3 -15 22 -21 43 -6
20 -20 55 -30 77 -10 22 -28 61 -39 86 -12 25 -21 51 -21 58 0 6 -9 28 -20 48
-11 21 -20 43 -20 50 0 7 -9 30 -20 50 -11 21 -20 45 -20 53 0 8 -9 29 -20 45
-11 17 -20 36 -20 44 0 8 -8 32 -19 55 -10 23 -28 64 -39 91 -11 28 -32 79
-46 115 -15 36 -33 78 -41 93 -8 16 -15 34 -15 40 0 7 -11 35 -25 62 -13 28
-25 58 -25 67 0 9 -4 19 -9 23 -5 3 -15 22 -21 43 -6 20 -20 55 -30 77 -10 22
-28 61 -39 86 -12 25 -21 51 -21 58 0 6 -9 28 -20 48 -11 21 -20 45 -20 53 0
8 -9 29 -20 45 -11 17 -20 37 -20 45 0 8 -9 32 -20 53 -11 20 -20 43 -20 49 0
7 -7 27 -16 43 -9 17 -31 71 -51 120 -19 50 -38 95 -42 100 -3 6 -11 26 -16
45 -6 20 -21 40 -35 47 -36 18 -3220 19 -3238 1z"/>
<path d="M2585 4025 c-5 -1 -43 -13 -82 -25 -40 -12 -73 -26 -73 -30 0 -4 -14
-13 -32 -21 -48 -20 -139 -119 -175 -190 -18 -35 -40 -101 -49 -146 -16 -78
-16 -87 0 -169 42 -212 180 -363 373 -405 85 -19 259 -19 7437 -19 6873 0
7356 1 7431 17 44 9 91 24 105 33 14 9 44 29 68 45 93 61 188 204 207 310 20
109 3 225 -46 330 -47 100 -183 219 -276 241 -15 4 -34 12 -42 18 -10 8 -2004
11 -7425 13 -4076 1 -7415 0 -7421 -2z"/>
</g>
</svg>
